<svg width="71" height="72" viewBox="0 0 71 72" fill="none" xmlns="http://www.w3.org/2000/svg">
<path d="M23.7024 17.4166C22.4978 17.4166 21.4989 16.4176 21.4989 15.2131V6.39896C21.4989 5.19437 22.4978 4.19543 23.7024 4.19543C24.907 4.19543 25.906 5.19437 25.906 6.39896V15.2131C25.906 16.4176 24.907 17.4166 23.7024 17.4166Z" fill="#11C4FE"/>
<path d="M47.2067 17.4166C46.0021 17.4166 45.0032 16.4176 45.0032 15.2131V6.39896C45.0032 5.19437 46.0021 4.19543 47.2067 4.19543C48.4113 4.19543 49.4102 5.19437 49.4102 6.39896V15.2131C49.4102 16.4176 48.4113 17.4166 47.2067 17.4166Z" fill="#11C4FE"/>
<path d="M25.1715 43.1243C24.7895 43.1243 24.4076 43.0362 24.055 42.8893C23.6731 42.7424 23.3793 42.5367 23.0855 42.2722C22.5566 41.714 22.2335 40.9795 22.2335 40.1863C22.2335 39.8043 22.3216 39.4224 22.4685 39.0698C22.6154 38.7172 22.8211 38.3941 23.0855 38.1003C23.3793 37.8359 23.6731 37.6301 24.055 37.4832C25.1127 37.0425 26.4348 37.2776 27.2575 38.1003C27.7863 38.6585 28.1095 39.4224 28.1095 40.1863C28.1095 40.3625 28.0801 40.5682 28.0508 40.7739C28.0214 40.9502 27.9626 41.1264 27.8745 41.3027C27.8157 41.479 27.7276 41.6553 27.6101 41.8316C27.5219 41.9785 27.375 42.1253 27.2575 42.2722C26.6993 42.8011 25.9354 43.1243 25.1715 43.1243Z" fill="#11C4FE"/>
<path d="M35.4546 43.1244C35.0727 43.1244 34.6907 43.0363 34.3382 42.8894C33.9562 42.7425 33.6624 42.5368 33.3686 42.2724C32.8398 41.7141 32.5166 40.9796 32.5166 40.1864C32.5166 39.8044 32.6047 39.4225 32.7516 39.0699C32.8986 38.7173 33.1042 38.3942 33.3686 38.1004C33.6624 37.836 33.9562 37.6302 34.3382 37.4833C35.3959 37.0133 36.718 37.2778 37.5406 38.1004C38.0695 38.6586 38.3927 39.4225 38.3927 40.1864C38.3927 40.3627 38.3633 40.5684 38.3339 40.774C38.3045 40.9503 38.2458 41.1266 38.1576 41.3028C38.0989 41.4791 38.0107 41.6554 37.8932 41.8317C37.8051 41.9786 37.6582 42.1255 37.5406 42.2724C36.9824 42.8012 36.2185 43.1244 35.4546 43.1244Z" fill="#11C4FE"/>
<path d="M45.7377 43.1244C45.3558 43.1244 44.9738 43.0363 44.6213 42.8894C44.2393 42.7425 43.9455 42.5368 43.6517 42.2724C43.5342 42.1255 43.4167 41.9786 43.2991 41.8317C43.1816 41.6554 43.0935 41.4791 43.0347 41.3028C42.9466 41.1266 42.8878 40.9503 42.8584 40.774C42.8291 40.5684 42.7997 40.3627 42.7997 40.1864C42.7997 39.4225 43.1229 38.6586 43.6517 38.1004C43.9455 37.836 44.2393 37.6302 44.6213 37.4833C45.7083 37.0133 47.0011 37.2778 47.8237 38.1004C48.3526 38.6586 48.6757 39.4225 48.6757 40.1864C48.6757 40.3627 48.6464 40.5684 48.617 40.774C48.5876 40.9503 48.5288 41.1266 48.4407 41.3028C48.3819 41.4791 48.2938 41.6554 48.1763 41.8317C48.0881 41.9786 47.9412 42.1255 47.8237 42.2724C47.2655 42.8012 46.5016 43.1244 45.7377 43.1244Z" fill="#11C4FE"/>
<path d="M25.1715 53.4076C24.7895 53.4076 24.4076 53.3194 24.055 53.1725C23.7025 53.0256 23.3793 52.8199 23.0855 52.5555C22.5566 51.9973 22.2335 51.2334 22.2335 50.4695C22.2335 50.0876 22.3216 49.7056 22.4685 49.3531C22.6154 48.9711 22.8211 48.648 23.0855 48.3835C24.1726 47.2965 26.1704 47.2965 27.2575 48.3835C27.7863 48.9418 28.1095 49.7056 28.1095 50.4695C28.1095 51.2334 27.7863 51.9973 27.2575 52.5555C26.6993 53.0843 25.9354 53.4076 25.1715 53.4076Z" fill="#11C4FE"/>
<path d="M35.4546 53.4076C34.6907 53.4076 33.9269 53.0843 33.3686 52.5555C32.8398 51.9973 32.5166 51.2334 32.5166 50.4695C32.5166 50.0876 32.6047 49.7056 32.7516 49.3531C32.8986 48.9711 33.1042 48.648 33.3686 48.3835C34.4557 47.2965 36.4536 47.2965 37.5406 48.3835C37.8051 48.648 38.0107 48.9711 38.1576 49.3531C38.3045 49.7056 38.3927 50.0876 38.3927 50.4695C38.3927 51.2334 38.0695 51.9973 37.5406 52.5555C36.9824 53.0843 36.2185 53.4076 35.4546 53.4076Z" fill="#11C4FE"/>
<path d="M45.7377 53.4076C44.9738 53.4076 44.2099 53.0844 43.6517 52.5556C43.3873 52.2911 43.1816 51.968 43.0347 51.586C42.8878 51.2335 42.7997 50.8515 42.7997 50.4696C42.7997 50.0876 42.8878 49.7057 43.0347 49.3531C43.1816 48.9712 43.3873 48.648 43.6517 48.3836C44.3275 47.7079 45.3558 47.3846 46.2959 47.5903C46.5016 47.6197 46.6779 47.6784 46.8542 47.7665C47.0305 47.8253 47.2067 47.9135 47.383 48.031C47.5299 48.1192 47.6768 48.2661 47.8237 48.3836C48.3526 48.9418 48.6757 49.7057 48.6757 50.4696C48.6757 51.2335 48.3526 51.9973 47.8237 52.5556C47.2655 53.0844 46.5016 53.4076 45.7377 53.4076Z" fill="#11C4FE"/>
<path d="M60.4279 29.433H10.4814C9.27676 29.433 8.27783 28.4341 8.27783 27.2295C8.27783 26.0249 9.27676 25.026 10.4814 25.026H60.4279C61.6325 25.026 62.6314 26.0249 62.6314 27.2295C62.6314 28.4341 61.6325 29.433 60.4279 29.433Z" fill="#11C4FE"/>
<path d="M47.2068 67.3632H23.7025C12.9787 67.3632 6.80884 61.1933 6.80884 50.4695V25.4962C6.80884 14.7724 12.9787 8.60254 23.7025 8.60254H47.2068C57.9306 8.60254 64.1005 14.7724 64.1005 25.4962V50.4695C64.1005 61.1933 57.9306 67.3632 47.2068 67.3632ZM23.7025 13.0096C15.2998 13.0096 11.2159 17.0935 11.2159 25.4962V50.4695C11.2159 58.8723 15.2998 62.9561 23.7025 62.9561H47.2068C55.6096 62.9561 59.6934 58.8723 59.6934 50.4695V25.4962C59.6934 17.0935 55.6096 13.0096 47.2068 13.0096H23.7025Z" fill="#11C4FE"/>
</svg>
