<svg width="72" height="72" viewBox="0 0 72 72" fill="none" xmlns="http://www.w3.org/2000/svg">
<path d="M36.0634 65.1596C52.2897 65.1596 65.4438 52.0056 65.4438 35.7792C65.4438 19.5529 52.2897 6.39893 36.0634 6.39893C19.8371 6.39893 6.68311 19.5529 6.68311 35.7792C6.68311 52.0056 19.8371 65.1596 36.0634 65.1596Z" stroke="#11C4FE" stroke-width="4.40705" stroke-linecap="round" stroke-linejoin="round"/>
<path d="M24.3113 9.33704H27.2493C21.5202 26.4951 21.5202 45.0635 27.2493 62.2216H24.3113" stroke="#11C4FE" stroke-width="4.40705" stroke-linecap="round" stroke-linejoin="round"/>
<path d="M44.8775 9.33704C50.6067 26.4951 50.6067 45.0635 44.8775 62.2216" stroke="#11C4FE" stroke-width="4.40705" stroke-linecap="round" stroke-linejoin="round"/>
<path d="M9.62114 47.5314V44.5934C26.7792 50.3225 45.3476 50.3225 62.5057 44.5934V47.5314" stroke="#11C4FE" stroke-width="4.40705" stroke-linecap="round" stroke-linejoin="round"/>
<path d="M9.62114 26.9652C26.7792 21.236 45.3476 21.236 62.5057 26.9652" stroke="#11C4FE" stroke-width="4.40705" stroke-linecap="round" stroke-linejoin="round"/>
</svg>
