<svg width="71" height="72" viewBox="0 0 71 72" fill="none" xmlns="http://www.w3.org/2000/svg">
<path d="M58.1463 44.3877C52.094 50.4107 43.4267 52.2617 35.8172 49.8819L21.9791 63.6906C20.9802 64.7189 19.0117 65.3359 17.6014 65.1303L11.1965 64.2488C9.08115 63.955 7.11267 61.9572 6.78949 59.8418L5.90808 53.4369C5.70241 52.0266 6.37816 50.0581 7.34771 49.0592L21.1565 35.2505C18.806 27.6116 20.6276 18.9444 26.68 12.9214C35.3472 4.25422 49.4203 4.25422 58.1169 12.9214C66.8135 21.5886 66.8135 35.7206 58.1463 44.3877Z" stroke="#11C4FE" stroke-width="4.40705" stroke-miterlimit="10" stroke-linecap="round" stroke-linejoin="round"/>
<path d="M20.2457 51.9091L27.0032 58.6665" stroke="#11C4FE" stroke-width="4.40705" stroke-miterlimit="10" stroke-linecap="round" stroke-linejoin="round"/>
<path d="M42.6041 32.8413C45.0381 32.8413 47.0112 30.8682 47.0112 28.4343C47.0112 26.0003 45.0381 24.0272 42.6041 24.0272C40.1702 24.0272 38.1971 26.0003 38.1971 28.4343C38.1971 30.8682 40.1702 32.8413 42.6041 32.8413Z" stroke="#11C4FE" stroke-width="4.40705" stroke-linecap="round" stroke-linejoin="round"/>
</svg>
