<svg width="72" height="71" viewBox="0 0 72 71" fill="none" xmlns="http://www.w3.org/2000/svg">
<path d="M33.1254 7.7619L18.4352 15.9884C16.6724 17.1636 15.4972 18.9264 15.4972 20.983V47.1315C15.4972 48.8944 16.3786 50.951 17.8476 51.8324L32.5378 62.4093C34.5944 63.8783 37.2386 63.8783 39.2953 62.4093L53.9854 51.8324C55.4544 50.6572 56.3359 48.8944 56.3359 47.1315V21.2769C56.3359 19.2202 55.1606 17.1636 53.3978 16.2822L38.7077 7.7619C37.2386 6.58669 34.8882 6.58669 33.1254 7.7619Z" stroke="#11C4FE" stroke-width="4.40705" stroke-miterlimit="10" stroke-linecap="round" stroke-linejoin="round"/>
<path d="M36.0634 8.93701L30.1874 35.3793L35.4758 62.4092" stroke="#11C4FE" stroke-width="4.40705" stroke-miterlimit="10" stroke-linecap="round" stroke-linejoin="round"/>
<path d="M54.2792 49.7758L30.1874 35.3794L55.1606 21.5707" stroke="#11C4FE" stroke-width="4.40705" stroke-miterlimit="10" stroke-linecap="round" stroke-linejoin="round"/>
</svg>
