<svg width="71" height="71" viewBox="0 0 71 71" fill="none" xmlns="http://www.w3.org/2000/svg">
<path d="M61.4369 32.7938C61.4369 47.1607 51.0069 60.6169 36.7575 64.5539C35.7879 64.8183 34.7302 64.8183 33.7606 64.5539C19.5112 60.6169 9.08118 47.1607 9.08118 32.7938V19.8958C9.08118 17.4866 10.9028 14.7542 13.1651 13.8434L29.5299 7.14479C33.2024 5.6464 37.345 5.6464 41.0176 7.14479L57.3824 13.8434C59.6153 14.7542 61.4663 17.4866 61.4663 19.8958L61.4369 32.7938Z" stroke="#11C4FE" stroke-width="4.40705" stroke-linecap="round" stroke-linejoin="round"/>
<path d="M35.259 36.8483C38.5043 36.8483 41.1351 34.2175 41.1351 30.9723C41.1351 27.727 38.5043 25.0962 35.259 25.0962C32.0137 25.0962 29.3829 27.727 29.3829 30.9723C29.3829 34.2175 32.0137 36.8483 35.259 36.8483Z" stroke="#11C4FE" stroke-width="4.40705" stroke-miterlimit="10" stroke-linecap="round" stroke-linejoin="round"/>
<path d="M35.259 36.8481V45.6622" stroke="#11C4FE" stroke-width="4.40705" stroke-miterlimit="10" stroke-linecap="round" stroke-linejoin="round"/>
</svg>
