<svg width="71" height="71" viewBox="0 0 71 71" fill="none" xmlns="http://www.w3.org/2000/svg">
<path d="M35.4547 35.3793C43.5678 35.3793 50.1448 28.8023 50.1448 20.6892C50.1448 12.576 43.5678 5.99902 35.4547 5.99902C27.3415 5.99902 20.7645 12.576 20.7645 20.6892C20.7645 28.8023 27.3415 35.3793 35.4547 35.3793Z" stroke="#11C4FE" stroke-width="4.40705" stroke-linecap="round" stroke-linejoin="round"/>
<path d="M10.217 64.7596C10.217 53.3894 21.5284 44.1934 35.4547 44.1934C38.2752 44.1934 41.0076 44.5753 43.5637 45.2804" stroke="#11C4FE" stroke-width="4.40705" stroke-linecap="round" stroke-linejoin="round"/>
<path d="M64.8348 53.0075C64.8348 55.211 64.2179 57.297 63.1308 59.0598C62.5138 60.1175 61.7205 61.0577 60.8097 61.8216C58.7531 63.6726 56.0501 64.7596 53.0827 64.7596C48.7932 64.7596 45.0618 62.468 43.0346 59.0598C41.9475 57.297 41.3306 55.211 41.3306 53.0075C41.3306 49.3056 43.0346 45.9856 45.7376 43.8409C47.7649 42.2249 50.3209 41.2554 53.0827 41.2554C59.5757 41.2554 64.8348 46.5144 64.8348 53.0075Z" stroke="#11C4FE" stroke-width="4.40705" stroke-miterlimit="10" stroke-linecap="round" stroke-linejoin="round"/>
<path d="M48.4994 53.0075L51.408 55.9161L57.666 50.1283" stroke="#11C4FE" stroke-width="4.40705" stroke-linecap="round" stroke-linejoin="round"/>
</svg>
